<svg width="463" height="63" viewBox="0 0 463 63" fill="none" xmlns="http://www.w3.org/2000/svg">
<path d="M88.753 7.71454H0V63H88.753V7.71454Z" fill="#DE0025"/>
<path d="M81.6229 19.7342H7.13007V29.5537H81.6229V19.7342Z" fill="white"/>
<path d="M81.6229 41.1588H7.13007V50.9784H81.6229V41.1588Z" fill="white"/>
<path d="M50.4296 21.5229L28.8342 43.1183L35.7777 50.0618L57.3731 28.4664L50.4296 21.5229Z" fill="white"/>
<path d="M116.801 50.7347H112.852V60.3378H106.034V31.2382H120.21C122.317 31.2382 124.16 31.6476 125.739 32.4646C127.318 33.2825 128.538 34.4392 129.397 35.9356C130.256 37.432 130.686 39.1508 130.686 41.0901C130.686 43.3073 130.111 45.2061 128.961 46.7854C127.811 48.3647 126.183 49.488 124.077 50.1523L132.308 60.3368H124.201L116.801 50.7337V50.7347ZM122.766 38.1387C121.977 37.4188 120.861 37.0579 119.42 37.0579H112.81V45.2476H119.42C120.889 45.2476 122.011 44.8947 122.787 44.188C123.562 43.4812 123.95 42.4772 123.95 41.174C123.95 39.8707 123.555 38.8606 122.765 38.1397L122.766 38.1387Z" fill="black"/>
<path d="M158.622 60.3378L156.46 55.0995H142.118L139.957 60.3378H132.682L145.736 31.2382H153.011L165.981 60.3378H158.622ZM149.352 37.7646L144.571 49.2383H154.05L149.353 37.7646H149.352Z" fill="black"/>
<path d="M168.848 31.2382H175.666V60.3378H168.848V31.2382Z" fill="black"/>
<path d="M182.025 31.2382H188.843V54.1855H203.476V60.3378H182.025V31.2382Z" fill="black"/>
<path d="M238.895 31.2382H240.683V60.3378H238.771L219.606 34.0227V60.3378H217.777V31.2382H219.773L238.895 57.4694V31.2382Z" fill="black"/>
<path d="M250.909 58.5917H269.574V60.3378H249.08V31.2382H269.034V32.9843H250.909V44.7491H268.161V46.4952H250.909V58.5927V58.5917Z" fill="black"/>
<path d="M295.391 31.2382V33.0257H284.666V60.3378H282.878V33.0257H272.152V31.2382H295.391Z" fill="black"/>
<path d="M337.502 31.2382H339.455L329.312 60.3378H327.192L322.619 46.3284L318.503 33.7739L314.346 46.3284L309.69 60.3378H307.569L297.592 31.2382H299.545L308.608 58.0933L317.463 31.2382H319.541L328.271 58.0933L332.054 47.1181L337.5 31.2382H337.502Z" fill="black"/>
<path d="M349.538 58.9244C347.307 57.6504 345.568 55.8689 344.321 53.5829C343.074 51.2968 342.45 48.6984 342.45 45.7885C342.45 42.8787 343.074 40.2802 344.321 37.9942C345.568 35.7081 347.307 33.9276 349.538 32.6527C351.768 31.3787 354.298 30.7407 357.125 30.7407C359.952 30.7407 362.481 31.3787 364.712 32.6527C366.943 33.9276 368.683 35.7081 369.929 37.9942C371.176 40.2802 371.8 42.8787 371.8 45.7885C371.8 48.6984 371.176 51.2968 369.929 53.5829C368.683 55.8689 366.943 57.6504 364.712 58.9244C362.481 60.1993 359.952 60.8363 357.125 60.8363C354.298 60.8363 351.768 60.1993 349.538 58.9244ZM363.756 57.4068C365.709 56.2845 367.234 54.7122 368.329 52.6881C369.424 50.6649 369.971 48.3647 369.971 45.7875C369.971 43.2103 369.423 40.9101 368.329 38.8869C367.234 36.8638 365.71 35.2905 363.756 34.1683C361.801 33.046 359.591 32.4848 357.125 32.4848C354.659 32.4848 352.448 33.046 350.495 34.1683C348.541 35.2905 347.016 36.8638 345.921 38.8869C344.826 40.9101 344.279 43.2103 344.279 45.7875C344.279 48.3647 344.826 50.6659 345.921 52.6881C347.016 54.7112 348.54 56.2845 350.495 57.4068C352.448 58.529 354.658 59.0902 357.125 59.0902C359.592 59.0902 361.802 58.529 363.756 57.4068Z" fill="black"/>
<path d="M388.552 49.1554H380.113V60.3378H378.284V31.2382H390.88C392.764 31.2382 394.42 31.6123 395.847 32.3605C397.274 33.1086 398.376 34.1622 399.152 35.5201C399.928 36.8779 400.316 38.4441 400.316 40.2175C400.316 41.9909 399.928 43.55 399.152 44.8947C398.376 46.2394 397.282 47.2849 395.868 48.0331C394.455 48.7813 392.806 49.1554 390.921 49.1554L401.231 60.3378H398.861L388.551 49.1554H388.552ZM396.431 34.9791C395.059 33.6769 393.208 33.0257 390.881 33.0257H380.114V47.4093H390.881C393.209 47.4093 395.059 46.7581 396.431 45.4559C397.803 44.1536 398.488 42.4075 398.488 40.2175C398.488 38.0275 397.803 36.2824 396.431 34.9791Z" fill="black"/>
<path d="M427.338 60.3378H424.761L409.088 45.7875V60.3378H407.259V31.2382H409.088V44.6237L423.555 31.2382H426.09L411.042 45.1647L427.338 60.3378Z" fill="black"/>
<path d="M457.289 60.4784V58.4815H459.619V57.1712H457.289V53.7406H460.284L455.709 47.4184H453.796L430.504 20.8817H432.084C423.612 13.3139 413.664 9.31203 401.887 9.73466H388.328V8.82469C388.328 8.27062 387.879 7.8207 387.324 7.8207H383.881C383.442 7.8207 383.086 8.17659 383.086 8.6154V9.73466H374.851V7.56287C374.851 7.08868 374.663 6.63471 374.327 6.29903L373.502 5.474C373.168 5.13933 372.713 4.95026 372.239 4.95026H330.751C330.278 4.95026 329.825 5.13832 329.491 5.47197L328.602 6.36172C328.267 6.69638 328.08 7.14934 328.08 7.62152V9.98237H324.274V2.17183C324.274 1.52475 323.75 1 323.102 1H319.284C318.523 1 317.834 1.44487 317.52 2.13847L314.125 9.65175H309.716C309.716 8.9167 309.12 8.32118 308.385 8.32118H305.058C304.277 8.32118 303.643 8.95411 303.643 9.73567H283.204C283.204 7.66095 281.521 5.97852 279.446 5.97852H250.811C248.507 5.97852 246.639 7.84597 246.639 10.1502H213.755C213.755 9.06331 212.873 8.18165 211.786 8.18165H209.47C208.532 8.18165 207.771 8.94198 207.771 9.88025H180.734C180.734 8.6973 179.775 7.73779 178.592 7.73779H178.149C176.884 7.73779 175.859 8.76302 175.859 10.0279H167.585H106.034" stroke="black" stroke-width="2" stroke-miterlimit="10"/>
</svg>
